<svg xmlns="http://www.w3.org/2000/svg" xmlns:xlink="http://www.w3.org/1999/xlink" width="238.648" height="168.775" viewBox="0 0 238.648 168.775">
  <defs>
    <linearGradient id="linear-gradient" x1="0.5" y1="1" x2="0.5" gradientUnits="objectBoundingBox">
      <stop offset="0" stop-color="gray" stop-opacity="0.251"/>
      <stop offset="0.54" stop-color="gray" stop-opacity="0.122"/>
      <stop offset="1" stop-color="gray" stop-opacity="0.102"/>
    </linearGradient>
    <linearGradient id="linear-gradient-2" x1="0.5" y1="1" x2="0.5" y2="0" xlink:href="#linear-gradient"/>
  </defs>
  <g id="undraw_medicine_b1ol" transform="translate(0.005 0.006)">
    <ellipse id="Elipse_2" data-name="Elipse 2" cx="21.01" cy="3.374" rx="21.01" ry="3.374" transform="translate(58.581 161.925)" fill="#ee6c4d" opacity="0.1"/>
    <ellipse id="Elipse_3" data-name="Elipse 3" cx="26.217" cy="3.374" rx="26.217" ry="3.374" transform="translate(167.581 162.02)" fill="#ee6c4d" opacity="0.1"/>
    <path id="Caminho_22" data-name="Caminho 22" d="M59.448,396.83H81.332v29.827H61.051c-.054.306-.106.614-.162.923H81.332v24.055c-.037-.011-.069-.024-.1-.037-.578-.229-1.151-.47-1.725-.729l-.367-.166q-.862-.408-1.725-.863c-.2-.106-.4-.216-.6-.328a35.883,35.883,0,0,1-8.6-6.719c-.073-.071-.142-.147-.216-.216-.349-.38-.692-.763-1.024-1.156l-.367-.431c-.392-.481-.772-.975-1.141-1.475-.054-.073-.106-.147-.162-.216a32.1,32.1,0,0,1-3.709-6.706c-.03-.071-.056-.149-.084-.216q-.444-1.143-.787-2.307c-.1-.326-.194-.647-.276-.985-.03-.1-.056-.2-.08-.293A58.955,58.955,0,0,1,59,414.116v-1.725c0-1.995.024-4,.058-6.007,0-.52.022-1.037.032-1.559q.045-1.986.129-3.972c.013-.369.03-.735.05-1.1a6.239,6.239,0,0,1,.032-.634C59.354,398.35,59.4,397.589,59.448,396.83Z" transform="translate(-56.088 -323.913)" fill="#ee6c4d" opacity="0.1"/>
    <path id="Caminho_23" data-name="Caminho 23" d="M118.9,187.621h-12a90.991,90.991,0,0,1,6.385-8.789c1.783-2.191,3.665-4.325,5.619-6.382Z" transform="translate(-93.66 -147.913)" fill="#e0fbfc" opacity="0.1"/>
    <path id="Caminho_24" data-name="Caminho 24" d="M83.214,247.09v31.364H61.4c0-.091.015-.183.022-.274.019-.248.039-.5.06-.742.024-.289.05-.58.078-.862s.058-.627.091-.94.063-.63.1-.942.069-.625.108-.936.073-.625.114-.936c.032-.259.067-.515.1-.774.05-.364.1-.731.157-1.093a1.008,1.008,0,0,1,.024-.162,74.586,74.586,0,0,1,1.606-7.874,58.234,58.234,0,0,1,2.706-7.978,59.888,59.888,0,0,1,4.071-7.84Z" transform="translate(-57.97 -206.459)" fill="#e0fbfc" opacity="0.1"/>
    <path id="Caminho_25" data-name="Caminho 25" d="M186.8,131.545v29.829h46.74V131.545Zm0,30.749V187.91c.267.056.533.11.8.155.358.069.714.132,1.078.185.069.011.14.022.216.028.142.024.289.043.431.063.36.05.718.091,1.078.123.17.017.343.032.515.045l.416.032h0c.226.017.451.03.673.037.138,0,.276.013.418.017h1.537c.185,0,.371,0,.554-.017h.013a2.905,2.905,0,0,0,.386-.017.9.9,0,0,0,.108,0,2.229,2.229,0,0,0,.319-.015h.075l.722-.056c.237-.022.477-.05.718-.075l.492-.058a43.009,43.009,0,0,0,5.919-1.259c4.36-1.216,8.625-2.917,12.982-4.164,5.634-1.606,11.859-2.4,17.3-.431V162.295Zm46.74-63.957V58.627a60.087,60.087,0,0,0-15.186,1.781C206.518,63.382,195.9,69.831,186.8,78.067V98.336h2.346v.921H186.8v31.368h46.74V99.259H198.778v-.921Zm60.035-13.414a19.36,19.36,0,0,1-8.472-2.462c-5.035-2.738-9.056-6.967-13.55-10.535A62.21,62.21,0,0,0,238.76,58.9V98.338h66.723l.166-.175Zm6.078-1.078,6.445,7.072V81.992a25.571,25.571,0,0,0-6.436,1.846ZM306.1,194.271V162.295H292.365c-.037-.136-.073-.274-.116-.412.041.138.076.276.114.412H238.769V185.42c.509.377,1.011.774,1.509,1.177h0c.537.431,1.067.886,1.6,1.333l.537.444c.257.216.515.431.776.634q.776.63,1.568,1.242c.261.216.528.41.793.612a108.073,108.073,0,0,0,13.289,8.692q1.559.862,3.146,1.684c.705.36,1.414.718,2.126,1.065q1.6.783,3.234,1.509h0a118.773,118.773,0,0,0,31.48,9.17q3.62.535,7.269.841V194.269h.216ZM238.769,99.259v31.366h67.338V99.259Zm0,32.287v29.829h67.338V131.545Zm72.565-49.592V91.91l8.226-9.026q-4.088-.66-8.226-.942Zm0,49.6v29.818h65.494V131.545Zm65.255,65.083.231-34.344H311.333v51.872a117.445,117.445,0,0,0,12.657-.151h.073q3.019-.19,6.009-.552h.045a110.664,110.664,0,0,0,30.877-8.239m28.462-68.768c-.246-.58-.5-1.156-.763-1.725-.487-1.078-1-2.126-1.533-3.174h-5.11v29.816h12.92a64.452,64.452,0,0,0-5.507-24.928Zm-7.407,25.848v29.54a42.316,42.316,0,0,0,8.929-12.042,41.4,41.4,0,0,0,3.98-17.5Zm0-39.441v7.762h4.631a84.084,84.084,0,0,0-4.625-7.773ZM337.632,87.8c-.341-.129-.681-.261-1.024-.388a93.494,93.494,0,0,0-11.063-3.325L312.957,97.907h0l-.242.257.162.177h44.8a95.824,95.824,0,0,0-20.04-10.546Zm21.359,11.464h-46.74l-.919.841v30.514h65.5V115.844A93.322,93.322,0,0,0,359,99.259Z" transform="translate(-156.332 -58.63)" fill="#e0fbfc" opacity="0.1"/>
    <path id="Caminho_26" data-name="Caminho 26" d="M83.214,320.46V336H61.4c0-.091.015-.183.022-.274.019-.248.039-.5.06-.742.024-.289.05-.58.078-.862s.058-.627.091-.94.063-.63.1-.942.069-.625.108-.936.073-.625.114-.936c.032-.259.067-.515.1-.774.05-.364.1-.731.157-1.093a1.007,1.007,0,0,1,.024-.162,74.582,74.582,0,0,1,1.606-7.874Z" transform="translate(-57.97 -264.009)" fill="#e0fbfc" opacity="0.1"/>
    <path id="Caminho_27" data-name="Caminho 27" d="M59.448,396.83H81.332v29.827H61.051c-.054.306-.106.614-.162.923H81.332v24.055c-.037-.011-.069-.024-.1-.037-.578-.229-1.151-.47-1.725-.729l-.367-.166q-.862-.408-1.725-.863c-.2-.106-.4-.216-.6-.328a35.883,35.883,0,0,1-8.6-6.719c-.073-.071-.142-.147-.216-.216-.349-.38-.692-.763-1.024-1.156l-.367-.431c-.392-.481-.772-.975-1.141-1.475-.054-.073-.106-.147-.162-.216a32.1,32.1,0,0,1-3.709-6.706c-.03-.071-.056-.149-.084-.216q-.444-1.143-.787-2.307c-.1-.326-.194-.647-.276-.985-.03-.1-.056-.2-.08-.293A58.955,58.955,0,0,1,59,414.116v-1.725c0-1.995.024-4,.058-6.007,0-.52.022-1.037.032-1.559q.045-1.986.129-3.972c.013-.369.03-.735.05-1.1a6.239,6.239,0,0,1,.032-.634C59.354,398.35,59.4,397.589,59.448,396.83Z" transform="translate(-56.088 -323.913)" fill="#e0fbfc" opacity="0.1"/>
    <path id="Caminho_28" data-name="Caminho 28" d="M156.014,176.179v26.875H139.56V176.179h2.346v-9.1h9.63v9.1Z" transform="translate(-109.092 -131.059)" fill="#ee6c4d" opacity="0.1"/>
    <rect id="Retângulo_6" data-name="Retângulo 6" width="16.452" height="29.827" transform="translate(30.471 72.915)" fill="#ee6c4d" opacity="0.1"/>
    <path id="Caminho_29" data-name="Caminho 29" d="M186.8,539.44h16.454v24.8a42.927,42.927,0,0,1-5.919,1.257l-.492.06c-.241.028-.481.052-.718.075s-.483.041-.722.056h-.075c-.1,0-.216.013-.317.015h-.11c-.129,0-.259.013-.388.017h0c-.183.011-.367.013-.554.015h-1.527l-.416-.015c-.216,0-.449-.024-.673-.039h0l-.414-.03-.515-.047c-.362-.032-.722-.073-1.078-.123l-.431-.06-.216-.03c-.36-.056-.716-.116-1.078-.185-.265-.045-.528-.1-.8-.155Z" transform="translate(-156.332 -435.773)" fill="#ee6c4d" opacity="0.1"/>
    <rect id="Retângulo_7" data-name="Retângulo 7" width="13.567" height="30.047" transform="translate(136.208 41.946)" fill="#ee6c4d" opacity="0.1"/>
    <path id="Caminho_30" data-name="Caminho 30" d="M447.92,338.19v29.829H380.58V355.153h35.868v7.59h17.9V338.19Z" transform="translate(-298.143 -265.275)" fill="#ee6c4d" opacity="0.1"/>
    <path id="Caminho_31" data-name="Caminho 31" d="M495.374,569.923h-.216V589.49q-3.644-.308-7.266-.839a118.774,118.774,0,0,1-31.493-9.19q-4.34-1.954-8.5-4.265A108.491,108.491,0,0,1,434.6,566.5q-1.587-1.216-3.133-2.488c-.714-.589-1.423-1.192-2.141-1.779-.5-.4-1-.8-1.509-1.179V537.942h53.592c-.037-.138-.073-.276-.112-.412.041.136.08.274.116.412h13.741V569.91C495.231,569.912,495.3,569.918,495.374,569.923Z" transform="translate(-345.383 -434.275)" fill="#fff" opacity="0.1"/>
    <path id="Caminho_32" data-name="Caminho 32" d="M872.06,203.05h-8.84V200.3h3.963V192.12q.515.188,1.026.386v7.8h3.851Z" transform="translate(-686.902 -163.342)" fill="#ee6c4d" opacity="0.1"/>
    <path id="Caminho_33" data-name="Caminho 33" d="M815.815,278.454h-43.4l.015.011-.019-.011H764.36V248.407h2.281v22.209h10.425V257.463h8.612V247.09h8.84v10.382h8.612v13.153h12.685Z" transform="translate(-609.358 -206.459)" fill="#ee6c4d" opacity="0.1"/>
    <path id="Caminho_34" data-name="Caminho 34" d="M764.36,396.82v29.829h51.456V396.82Zm65.423,64.94.071-23.61H815.815V427.585H764.36v51.857a117.45,117.45,0,0,0,12.657-.151h.073q3.019-.19,6.009-.552h.045a110.664,110.664,0,0,0,30.877-8.239" transform="translate(-609.358 -323.905)" fill="#ee6c4d" opacity="0.1"/>
    <path id="Caminho_35" data-name="Caminho 35" d="M1093.276,539.44h12a41.525,41.525,0,0,1-3.983,17.5,42.328,42.328,0,0,1-8.927,12.042V550.008h.906Z" transform="translate(-866.643 -435.773)" fill="#ee6c4d" opacity="0.1"/>
    <path id="Caminho_36" data-name="Caminho 36" d="M1108.58,444.478h-12.01V419.55h6.5A64.535,64.535,0,0,1,1108.58,444.478Z" transform="translate(-869.938 -341.734)" fill="#ee6c4d" opacity="0.1"/>
    <rect id="Retângulo_8" data-name="Retângulo 8" width="7.269" height="9.42" transform="translate(142.509 50.299)" fill="#ee6c4d" opacity="0.1"/>
    <rect id="Retângulo_9" data-name="Retângulo 9" width="7.269" height="2.169" transform="translate(142.509 69.826)" fill="#ee6c4d" opacity="0.1"/>
    <rect id="Retângulo_10" data-name="Retângulo 10" width="7.269" height="6.328" transform="translate(142.509 72.915)" fill="#ee6c4d" opacity="0.1"/>
    <rect id="Retângulo_11" data-name="Retângulo 11" width="7.269" height="9.42" transform="translate(142.509 89.352)" fill="#ee6c4d" opacity="0.1"/>
    <rect id="Retângulo_12" data-name="Retângulo 12" width="7.269" height="9.42" transform="translate(142.509 108.879)" fill="#ee6c4d" opacity="0.1"/>
    <path id="Caminho_37" data-name="Caminho 37" d="M713.686,661.4a1.2,1.2,0,0,1,.216.013h-.216V663.6H706.42V654.17h7.266Z" transform="translate(-563.911 -525.765)" fill="#ee6c4d" opacity="0.1"/>
    <path id="Caminho_38" data-name="Caminho 38" d="M713.686,744.71v7.277q-3.644-.308-7.266-.839V744.71Z" transform="translate(-563.911 -596.783)" fill="#ee6c4d" opacity="0.1"/>
    <rect id="Retângulo_13" data-name="Retângulo 13" width="31.151" height="0.692" transform="translate(82.437 102.052)" fill="#ee6c4d" opacity="0.1"/>
    <rect id="Retângulo_14" data-name="Retângulo 14" width="31.151" height="2.652" transform="translate(82.437 103.665)" fill="#ee6c4d" opacity="0.1"/>
    <rect id="Retângulo_15" data-name="Retângulo 15" width="31.151" height="4.265" transform="translate(82.437 115.011)" fill="#ee6c4d" opacity="0.1"/>
    <path id="Caminho_39" data-name="Caminho 39" d="M464.451,652.15v4.265H440.086q-1.587-1.212-3.135-2.488c-.714-.589-1.421-1.192-2.141-1.777Z" transform="translate(-350.866 -524.181)" fill="#ee6c4d" opacity="0.1"/>
    <path id="Caminho_40" data-name="Caminho 40" d="M531.994,712.216v4.261h-2.572q-4.336-1.956-8.5-4.267Z" transform="translate(-418.409 -571.29)" fill="#ee6c4d" opacity="0.1"/>
    <rect id="Retângulo_16" data-name="Retângulo 16" width="6.132" height="6.132" transform="translate(167.661 75.807)" fill="#ee6c4d" opacity="0.1"/>
    <rect id="Retângulo_17" data-name="Retângulo 17" width="6.132" height="6.132" transform="translate(34.886 47.235)" fill="#ee6c4d" opacity="0.1"/>
    <rect id="Retângulo_18" data-name="Retângulo 18" width="6.132" height="6.132" transform="translate(34.886 61.479)" fill="#ee6c4d" opacity="0.1"/>
    <rect id="Retângulo_19" data-name="Retângulo 19" width="6.132" height="6.132" transform="translate(34.886 75.723)" fill="#ee6c4d" opacity="0.1"/>
    <rect id="Retângulo_20" data-name="Retângulo 20" width="6.132" height="6.132" transform="translate(34.886 89.964)" fill="#ee6c4d" opacity="0.1"/>
    <rect id="Retângulo_21" data-name="Retângulo 21" width="6.132" height="6.132" transform="translate(34.886 104.208)" fill="#ee6c4d" opacity="0.1"/>
    <rect id="Retângulo_22" data-name="Retângulo 22" width="6.132" height="6.132" transform="translate(34.886 118.452)" fill="#ee6c4d" opacity="0.1"/>
    <rect id="Retângulo_23" data-name="Retângulo 23" width="6.132" height="6.132" transform="translate(191.07 75.807)" fill="#ee6c4d" opacity="0.1"/>
    <rect id="Retângulo_24" data-name="Retângulo 24" width="6.132" height="6.132" transform="translate(167.661 90.933)" fill="#ee6c4d" opacity="0.1"/>
    <rect id="Retângulo_25" data-name="Retângulo 25" width="6.132" height="6.132" transform="translate(191.07 90.933)" fill="#ee6c4d" opacity="0.1"/>
    <rect id="Retângulo_26" data-name="Retângulo 26" width="6.132" height="6.132" transform="translate(167.661 106.056)" fill="#ee6c4d" opacity="0.1"/>
    <rect id="Retângulo_27" data-name="Retângulo 27" width="6.132" height="6.132" transform="translate(191.07 106.056)" fill="#ee6c4d" opacity="0.1"/>
    <rect id="Retângulo_28" data-name="Retângulo 28" width="6.132" height="6.132" transform="translate(167.661 121.182)" fill="#ee6c4d" opacity="0.1"/>
    <rect id="Retângulo_29" data-name="Retângulo 29" width="6.132" height="6.132" transform="translate(191.07 121.182)" fill="#ee6c4d" opacity="0.1"/>
    <rect id="Retângulo_30" data-name="Retângulo 30" width="6.132" height="6.132" transform="translate(167.661 136.308)" fill="#ee6c4d" opacity="0.1"/>
    <rect id="Retângulo_31" data-name="Retângulo 31" width="6.132" height="6.132" transform="translate(191.07 136.308)" fill="#ee6c4d" opacity="0.1"/>
    <path id="Caminho_41" data-name="Caminho 41" d="M775.83,706.285V702.33h6.13v3.392Z" transform="translate(-608.169 -550.899)" fill="#ee6c4d" opacity="0.1"/>
    <path id="Caminho_42" data-name="Caminho 42" d="M65.24,357v3.508H86.226V357Zm2.092,3.288H65.619v-3.073h1.725Zm2.089,0H67.7v-3.073h1.725Zm2.085,0H69.781v-3.073h1.725Zm2.089,0H71.872v-3.073H73.6Zm2.087,0H73.957v-3.073h1.725Zm2.089,0H76.047v-3.073h1.725Zm2.089,0H78.136v-3.073h1.725Zm2.087,0H80.223v-3.073h1.725Zm2.087,0H82.311v-3.073h1.725Zm2.087,0H84.4v-3.073h1.725Z" transform="translate(-60.982 -292.671)" fill="#e0fbfc" opacity="0.1"/>
    <path id="Caminho_43" data-name="Caminho 43" d="M65.24,404.34v3.508H86.226V404.34Zm2.092,3.286H65.619v-3.064h1.725Zm2.089,0H67.7v-3.064h1.725Zm2.085,0H69.781v-3.064h1.725Zm2.089,0H71.872v-3.064H73.6Zm2.087,0H73.957v-3.064h1.725Zm2.089,0H76.047v-3.064h1.725Zm2.089,0H78.136v-3.064h1.725Zm2.087,0H80.223v-3.064h1.725Zm2.087,0H82.311v-3.064h1.725Zm2.087,0H84.4v-3.064h1.725Z" transform="translate(-60.982 -329.803)" fill="#ee6c4d" opacity="0.1"/>
    <path id="Caminho_44" data-name="Caminho 44" d="M65.24,451.7v3.515H86.226V451.7Zm2.092,3.286H65.619V451.92h1.725Zm2.089,0H67.7V451.92h1.725Zm2.085,0H69.781V451.92h1.725Zm2.089,0H71.872V451.92H73.6Zm2.087,0H73.957V451.92h1.725Zm2.089,0H76.047V451.92h1.725Zm2.089,0H78.136V451.92h1.725Zm2.087,0H80.223V451.92h1.725Zm2.087,0H82.311V451.92h1.725Zm2.087,0H84.4V451.92h1.725Z" transform="translate(-60.982 -366.951)" fill="#ee6c4d" opacity="0.1"/>
    <path id="Caminho_45" data-name="Caminho 45" d="M65.24,499.06v3.5H86.226v-3.5Zm2.092,3.286H65.619v-3.068h1.725Zm2.089,0H67.7v-3.068h1.725Zm2.085,0H69.781v-3.068h1.725Zm2.089,0H71.872v-3.068H73.6Zm2.087,0H73.957v-3.068h1.725Zm2.089,0H76.047v-3.068h1.725Zm2.089,0H78.136v-3.068h1.725Zm2.087,0H80.223v-3.068h1.725Zm2.087,0H82.311v-3.068h1.725Zm2.087,0H84.4v-3.068h1.725Z" transform="translate(-60.982 -404.1)" fill="#ee6c4d" opacity="0.1"/>
    <path id="Caminho_46" data-name="Caminho 46" d="M65.66,546.41c.084.33.179.66.278.985v-.765h1.725V549.7H66.74c.028.071.056.149.084.216H86.556v-3.5Zm4.1,3.286H68.032V546.63h1.725Zm2.085,0H70.117V546.63h1.725Zm2.089,0H72.2V546.63h1.725Zm2.087,0H74.293V546.63h1.725Zm2.089,0H76.383V546.63h1.725Zm2.089,0H78.472V546.63H80.2Zm2.087,0H80.559V546.63h1.725Zm2.087,0H82.647V546.63h1.725Zm2.087,0H84.734V546.63h1.725Z" transform="translate(-61.312 -441.24)" fill="#ee6c4d" opacity="0.1"/>
    <path id="Caminho_47" data-name="Caminho 47" d="M88.26,593.77c.054.069.106.147.162.216h1.141v1.473c.123.147.244.293.369.431v-1.913h1.725v3.077h-.7c.069.071.136.147.216.216h13.116v-3.5Zm5.479,3.284H92.014V593.99h1.725Zm2.089,0H94.1V593.99h1.725Zm2.089,0H96.193V593.99h1.725Zm2.087,0H98.28V593.99H100Zm2.087,0h-1.725V593.99h1.725Zm2.087,0h-1.725V593.99h1.725Z" transform="translate(-79.039 -478.388)" fill="#ee6c4d" opacity="0.1"/>
    <path id="Caminho_48" data-name="Caminho 48" d="M141.65,641.12c.2.112.4.216.6.328v-.108h1.725v.97l.367.17V641.34h1.725v1.865a.54.54,0,0,0,.1.039V641.12Z" transform="translate(-120.917 -515.529)" fill="#ee6c4d" opacity="0.1"/>
    <path id="Caminho_49" data-name="Caminho 49" d="M327.954,275.073Zm-13.282,63.638Zm-13.858-32.38c.041.138.076.276.114.412h0C300.894,306.608,300.857,306.47,300.814,306.332Zm27.14-31.265ZM197.72,242.78v.921h9.632v-.921Zm116.952,95.931Zm-13.858-32.38c.041.138.076.276.114.412h0C300.894,306.608,300.857,306.47,300.814,306.332Zm27.14-31.265ZM314.672,338.7Zm-13.858-32.373c.041.138.076.276.114.412h0C300.894,306.608,300.857,306.47,300.814,306.332Z" transform="translate(-164.897 -203.079)" fill="#ee6c4d" opacity="0.1"/>
    <path id="Caminho_50" data-name="Caminho 50" d="M341.594,265.626s-.85-.119-.85-1.356a19.389,19.389,0,0,0-.608-3.549h0c0-.011-.526-4.026-1.253-4.664s-1.66-4.386-1.66-4.386a8.841,8.841,0,0,0-.485-2.471,21,21,0,0,1-1.414-3.038c-.649-1.529-3.355-2.587-3.355-2.587s-4.892-2.838-6.279-3.763h0a2.129,2.129,0,0,1-.351-.265c-.241-.317-1.294-.323-1.294-.323a21.208,21.208,0,0,1-.25-2.214,1.68,1.68,0,0,0-.011-.233,7.46,7.46,0,0,0,3.28-4.058c.026-.082.047-.168.071-.25a.7.7,0,0,0,.42-.379,7.915,7.915,0,0,1,.282-.862,3.249,3.249,0,0,1,.8-.7,3.019,3.019,0,0,0,.83-2.456c-.022-.722-.138-1.451-.093-2.169l.013-.181c.013-.108.028-.216.047-.319.106-.535.336-1.039.466-1.57a2.019,2.019,0,0,0-.16-1.585,2.754,2.754,0,0,0-2.171-.873c-.916-.078-1.736.024-2.322-.737a8.276,8.276,0,0,0-.923-1.115c-.121-.112-1.294-.828-1.294-.875a5.242,5.242,0,0,0-3.655-.28c-.608.177-1.182.466-1.8.61-1.33.315-2.861-.026-3.991.735a4.691,4.691,0,0,0-1.361,1.785q-.431.826-.875,1.649a10.686,10.686,0,0,0-1.162,2.822,4.476,4.476,0,0,0-.078.66h0v.351a1.16,1.16,0,0,0,.013.216c.013.067.011.088.017.134s.017.147.03.216.039.19.065.285c.011.041.026.08.039.119.022.073.047.144.076.216.015.037.03.075.047.112a2,2,0,0,0,.11.216c.017.03.03.058.047.086a2.855,2.855,0,0,0,.2.289c.461.576,1.141.942,1.643,1.481v.241a7.381,7.381,0,0,0,3.359,6.027c0,.082.011.166.015.248a12.341,12.341,0,0,1-.024,1.921.906.906,0,0,0-.716-.319,1.034,1.034,0,0,0-.276.024l-.019-.015h0v.019c-.474.116-1.059.61-1.617,2.014,0,0-1.7,1.915-2.993,1.835s-4.569,1.992-4.569,1.992-3.2,2.074-3.881,4.187a29.51,29.51,0,0,1-1.376,3.51l-3.95,8.14h0l-.729,6.458a29.968,29.968,0,0,1,.323,3.31,31.868,31.868,0,0,0,1.658,4.386s5.742,10.089,8.088,10.606l.168-.119a1.376,1.376,0,0,0,.317.119l.483-.341a5.265,5.265,0,0,1-.037,1.138,30,30,0,0,0,.686,8.771c.565,1.274.364,17.983.364,17.983l-.08,1.475a.626.626,0,0,0,.019.129l-.019.349.058.03a4.154,4.154,0,0,1-.058,1.4,15.6,15.6,0,0,0-.285,2.475s-1.615,10.324-.85,12.4,1.417,4.347,1.417,4.347.809,2.587.039,3.029-2.958,1.184-2.508,2.262c.41,1,1.964,3.666,2.195,4.056l-.019.2-.317,3.435a4.313,4.313,0,0,0,.364,1.311,2.259,2.259,0,0,0,2.3,1.44c.216-.015.466-.041.707-.073a30.562,30.562,0,0,0,5.24-1.363,2.136,2.136,0,0,1-.41-.339h0a1.184,1.184,0,0,1-.36-.862,25.255,25.255,0,0,0-1.427-4.338c-.045-.106-.069-.166-.069-.166s2.669-2.79,2.225-5.263c0,0-2.954-1.725-1.982-2.671a30.122,30.122,0,0,0,2.71-3.666s.08-10.166,0-11.684a12.569,12.569,0,0,1,.149-3.155c.032-.157.071-.31.112-.461a28.141,28.141,0,0,0,4.062.308c.5,0,1,0,1.509-.03q0,.216.019.466c.112,2.518.321,6.934.492,8.575.241,2.352,1.576,8.692,1.576,8.692s-2.547,1.634.444,5.662a5.46,5.46,0,0,1-.2,1.671h0a18.261,18.261,0,0,0-.511,2.1,3.71,3.71,0,0,0,.026,1.925c.485.953,3.4.875,3.4.875h0l.071-.013a4.172,4.172,0,0,1,3.081.929c1.106.888,5.3.5,7.577.216.891-.112,1.486-.216,1.486-.216a.863.863,0,0,0,.03-.311h0c-.024-.558-.461-1.783-3.428-2.876,0,0-2.79-1.876-2.751-3.51h-.382a3.041,3.041,0,0,1,.386,0s-1.093-3.989-.647-4.312-.891-4.744-.891-4.744-.765-7.417-.806-7.937a4.528,4.528,0,0,1,.2-1.315l-.2-4.067s-.039-1.352,0-1.792a8.954,8.954,0,0,0-.093-1.141c-.019-.151-.039-.308-.06-.464,1.046-.265,1.725-.511,1.725-.511l-.121-14.155c.888-1.725,1.052-5.509,1.048-8.194,0-1.725-.078-3-.078-3l1.214-1.982s.28-2.372-.164-2.891a.5.5,0,0,1,.054-.679,2.258,2.258,0,0,1,.265-.181s-.013-.019-.028-.047a2.146,2.146,0,0,1,.27-.192s-.431-.668-.045-.951c.362.246.686.431.931.582-.017.157-.035.248-.035.248l.1-.216.382.216s1.9-3.788,1.861-4.347a12.678,12.678,0,0,1,1.294-2.911,2.913,2.913,0,0,1,.891-1.753c.729-.517.565-4.267.565-4.267a9.193,9.193,0,0,1,.688-2.751C342.522,266.7,341.594,265.626,341.594,265.626Zm-36.388-1.662.037.9-.371-.6Z" transform="translate(-241.688 -183.766)" fill="url(#linear-gradient)"/>
    <path id="Caminho_51" data-name="Caminho 51" d="M468.541,493.087l-.466,1.984s-3.73-1.9-4.4-4.323a2.736,2.736,0,0,1,1.125-3.338l3.476,1.473Z" transform="translate(-373.386 -394.962)" fill="#fff"/>
    <path id="Caminho_52" data-name="Caminho 52" d="M468.541,493.087l-.466,1.984s-3.73-1.9-4.4-4.323a2.736,2.736,0,0,1,1.125-3.338l3.476,1.473Z" transform="translate(-373.386 -394.962)" opacity="0.1"/>
    <path id="Caminho_53" data-name="Caminho 53" d="M359.009,798.275a26.808,26.808,0,0,1-5.822,1.427,2.215,2.215,0,0,1-2.262-1.432,4.334,4.334,0,0,1-.356-1.3l.308-3.418.164-1.82,5.039-1.309.714,2.182.067.166a25.263,25.263,0,0,1,1.4,4.312,1.177,1.177,0,0,0,.354.852A2.044,2.044,0,0,0,359.009,798.275Z" transform="translate(-284.79 -632.637)" fill="#fff"/>
    <path id="Caminho_54" data-name="Caminho 54" d="M442.662,795.714a.862.862,0,0,1-.03.308s-7.378,1.231-8.888,0a4,4,0,0,0-3.1-.91s-2.855.078-3.331-.862a3.744,3.744,0,0,1-.024-1.915,18.251,18.251,0,0,1,.5-2.094l.114-.091.679-.546,7.952-.235h.06c-.039,1.626,2.7,3.491,2.7,3.491C442.2,793.939,442.628,795.157,442.662,795.714Z" transform="translate(-344.877 -631.813)" fill="#fff"/>
    <path id="Caminho_55" data-name="Caminho 55" d="M442.666,806.5a.88.88,0,0,1-.032.308s-7.376,1.231-8.886,0a4,4,0,0,0-3.1-.91s-2.857.078-3.331-.862a3.741,3.741,0,0,1-.026-1.915c1.1.11,2.835.384,3.517,1.037a7.807,7.807,0,0,0,3.849,2.063C435.492,806.275,440.51,806.434,442.666,806.5Z" transform="translate(-344.881 -642.598)" opacity="0.1"/>
    <path id="Caminho_56" data-name="Caminho 56" d="M360.311,825.642a26.805,26.805,0,0,1-5.822,1.427,2.209,2.209,0,0,1-2.26-1.434,4.686,4.686,0,0,0,2.736.321,24.4,24.4,0,0,1,4.959-.647,2.118,2.118,0,0,0,.386.332Z" transform="translate(-286.092 -660.004)" opacity="0.1"/>
    <path id="Caminho_57" data-name="Caminho 57" d="M392.583,305.937c-2.846-1.106-6.507-4.761-5.593-6.469a3.82,3.82,0,0,0,.356-1.371,12.522,12.522,0,0,0,.026-1.941A26.569,26.569,0,0,0,386.99,293s8.886.2,8.368,1.509a4.893,4.893,0,0,0-.134,1.8c.041.746.149,1.589.261,2.3.155.979.311,1.725.311,1.725s-.543.761-.863.8S396.667,307.513,392.583,305.937Z" transform="translate(-313.245 -242.47)" fill="#cf6f80"/>
    <path id="Caminho_58" data-name="Caminho 58" d="M357.953,792.768l-.067.073c-2.656-3.213-5.869.791-5.869.791l-.047-.084.164-1.82,5.039-1.309.714,2.182Z" transform="translate(-285.888 -632.637)" opacity="0.1"/>
    <path id="Caminho_59" data-name="Caminho 59" d="M438.823,789.565a5.1,5.1,0,0,0-2.976.873c-1.035.914-6.037.2-5.822,0a.709.709,0,0,0,.112-.328l.679-.546,7.952-.235C438.8,789.474,438.823,789.565,438.823,789.565Z" transform="translate(-347.108 -631.782)" opacity="0.1"/>
    <path id="Caminho_60" data-name="Caminho 60" d="M353.275,657.918a6,6,0,0,0-.328,1.106,12.654,12.654,0,0,0-.149,3.139c.08,1.509,0,11.624,0,11.624a30.95,30.95,0,0,1-2.656,3.648c-.951.951,1.941,2.659,1.941,2.659.431,2.458-2.182,5.235-2.182,5.235-2.656-3.213-5.869.793-5.869.793s-1.746-3.019-2.182-4.1,1.706-1.824,2.458-2.262-.037-3.019-.037-3.019-.636-2.262-1.391-4.325.832-12.336.832-12.336a15.917,15.917,0,0,1,.278-2.46,4.115,4.115,0,0,0,.058-1.4c-.013-.158-.028-.289-.039-.377s-.019-.129-.019-.129l.03-.052,1.078-2.01S353.793,656.653,353.275,657.918Z" transform="translate(-277.904 -525.365)" fill="#ee6c4d"/>
    <path id="Caminho_61" data-name="Caminho 61" d="M430.345,690.582a5.148,5.148,0,0,0-2.976.863c-1.035.9-6.037.2-5.822,0s.2-1.667.2-1.667c-2.935-4.006-.431-5.632-.431-5.632s-1.311-6.307-1.548-8.646c-.166-1.634-.371-6.027-.481-8.534-.047-1.078-.075-1.82-.075-1.82l2.4-.483.308-.063,5.783-1.16s.16,1.078.267,1.96a9.158,9.158,0,0,1,.091,1.136c-.039.431,0,1.781,0,1.781l.2,4.047a4.6,4.6,0,0,0-.2,1.309c.039.515.791,7.894.791,7.894s1.309,4.4.862,4.72S430.345,690.582,430.345,690.582Z" transform="translate(-338.63 -533.036)" fill="#ee6c4d"/>
    <path id="Caminho_62" data-name="Caminho 62" d="M395.878,294.509a4.894,4.894,0,0,0-.134,1.8,7.385,7.385,0,0,1-7.853-.147A26.567,26.567,0,0,0,387.51,293S396.4,293.2,395.878,294.509Z" transform="translate(-313.765 -242.47)" opacity="0.1"/>
    <path id="Caminho_63" data-name="Caminho 63" d="M388.583,251.058a7.3,7.3,0,0,1-.362,2.288,7.378,7.378,0,0,1-14.39-2.111v-.177a7.378,7.378,0,1,1,14.756,0Z" transform="translate(-303.034 -203.785)" fill="#cf6f80"/>
    <path id="Caminho_64" data-name="Caminho 64" d="M392.583,324.48c-2.846-1.106-6.507-4.761-5.593-6.469a3.82,3.82,0,0,0,.356-1.371l3.9,3.2,2.411,1.977,1.833-4.666c.155.979.311,1.725.311,1.725s-.543.761-.863.8S396.667,326.056,392.583,324.48Z" transform="translate(-313.245 -261.013)" opacity="0.1"/>
    <path id="Caminho_65" data-name="Caminho 65" d="M345.7,278.754l-3.254,54.659-4.243.278L327.21,302l1.8-37.628.38-7.95,4.886,4.013,2.413,1.977,1.887-4.8,3.508,3.057Z" transform="translate(-256.281 -201.136)" fill="#ee6c4d"/>
    <path id="Caminho_66" data-name="Caminho 66" d="M361.282,657.981a6,6,0,0,0-.328,1.106,31.262,31.262,0,0,1-8.9-2.779l-.058-.03.019-.347.011-.181,1.078-2.01S361.8,656.716,361.282,657.981Z" transform="translate(-285.911 -525.428)" opacity="0.1"/>
    <path id="Caminho_67" data-name="Caminho 67" d="M421.61,671.191a21.814,21.814,0,0,1-2.385.272c-.047-1.078-.075-1.82-.075-1.82l2.4-.483Z" transform="translate(-338.583 -537.523)" opacity="0.1"/>
    <path id="Caminho_68" data-name="Caminho 68" d="M437.75,665.45a16.738,16.738,0,0,1-6.02.567l-.03-1.367,5.783-1.16S437.643,664.557,437.75,665.45Z" transform="translate(-348.426 -533.075)" opacity="0.1"/>
    <path id="Caminho_69" data-name="Caminho 69" d="M329.957,392.921c-8.84,1.509-16.937-2.818-16.937-2.818l.078-1.466s.2-16.622-.356-17.9a30.3,30.3,0,0,1-.675-8.728c.315-.992-1.149-15.865-1.149-15.865l-.237-6.037L302,336.593l3.881-8.09a29.186,29.186,0,0,0,1.35-3.493c.675-2.1,3.808-4.164,3.808-4.164s3.213-2.061,4.483-1.984,2.935-1.824,2.935-1.824c1.229-3.133,2.342-1.714,2.342-1.714a2.8,2.8,0,0,1-.06.464c-.431,3.439,6.973,14.306,7.079,14.5h0l.705,17.176.714,21.737Z" transform="translate(-246.692 -259.73)" opacity="0.1"/>
    <path id="Caminho_70" data-name="Caminho 70" d="M328.834,392.874c-8.84,1.509-16.939-2.818-16.939-2.818l.08-1.466s.2-16.622-.358-17.9a30.148,30.148,0,0,1-.673-8.728c.317-.992-1.149-15.865-1.149-15.865l-.239-6.037-8.685-3.53,3.881-8.09a29.646,29.646,0,0,0,1.35-3.493c.673-2.1,3.808-4.164,3.808-4.164s3.213-2.061,4.481-1.984,2.935-1.824,2.935-1.824c1.231-3.133,2.587-1.714,2.587-1.714,0,.149-.129.216-.06.464.949,3.336,6.736,14.306,6.842,14.5h0l.714,17.176.714,21.737Z" transform="translate(-245.806 -259.682)" fill="#fff"/>
    <path id="Caminho_71" data-name="Caminho 71" d="M389.884,332.532c-.951-.4-5.988-6.147-5.988-6.147v-1.309c-.183-.431-1.272-.168-2.156.134l.379-7.95.431.358C383.5,320.951,389.774,332.34,389.884,332.532Z" transform="translate(-309.239 -261.499)" opacity="0.1"/>
    <path id="Caminho_72" data-name="Caminho 72" d="M390.986,330.322c-.953-.4-5.99-6.147-5.99-6.147v-1.309c-.183-.431-1.272-.168-2.156.134l.382-7.95.431.358C384.6,318.741,390.88,330.133,390.986,330.322Z" transform="translate(-310.102 -259.766)" fill="#fff"/>
    <path id="Caminho_73" data-name="Caminho 73" d="M351.345,516.584c.119,0,6.147-.634,6.147-.634s3.65,7.178,3.411,8.924-.673,3.293-2.141,3.019-7.9.216-7.9.216Z" transform="translate(-285.017 -417.348)" opacity="0.1"/>
    <path id="Caminho_74" data-name="Caminho 74" d="M350.235,514.374c.119,0,6.147-.634,6.147-.634s3.648,7.18,3.411,8.924-.675,3.292-2.141,3.019-7.9.216-7.9.216Z" transform="translate(-284.146 -415.614)" fill="#fff"/>
    <path id="Caminho_75" data-name="Caminho 75" d="M361.077,501.05s5.533,2.973,5.651,3.881-2.816-.4-3.45-.554a7.9,7.9,0,0,0-1.27-.2l-4.228.114Z" transform="translate(-290.445 -405.661)" fill="#cf6f80"/>
    <circle id="Elipse_4" data-name="Elipse 4" cx="0.582" cy="0.582" r="0.582" transform="translate(78.519 70.24)" opacity="0.1"/>
    <circle id="Elipse_5" data-name="Elipse 5" cx="0.582" cy="0.582" r="0.582" transform="translate(78.519 70.002)" fill="#3f3d56"/>
    <circle id="Elipse_6" data-name="Elipse 6" cx="0.582" cy="0.582" r="0.582" transform="translate(79.591 95.441)" opacity="0.1"/>
    <circle id="Elipse_7" data-name="Elipse 7" cx="0.582" cy="0.582" r="0.582" transform="translate(79.591 95.202)" fill="#3f3d56"/>
    <circle id="Elipse_8" data-name="Elipse 8" cx="0.582" cy="0.582" r="0.582" transform="translate(79.099 82.84)" opacity="0.1"/>
    <circle id="Elipse_9" data-name="Elipse 9" cx="0.582" cy="0.582" r="0.582" transform="translate(79.099 82.603)" fill="#3f3d56"/>
    <path id="Caminho_76" data-name="Caminho 76" d="M437.763,361.15s.4.6,0,.873.039.951.039.951-.99.58-.554,1.1.16,2.879.16,2.879l-1.19,1.971s.071,1.27.076,2.986c0,2.678-.157,6.443-1.029,8.159l.121,14.082a19.168,19.168,0,0,1-7.657,1.059l-.518-22.6s.755-12.814,1.033-15.272a25.582,25.582,0,0,0,.2-3.849,43.005,43.005,0,0,0-.517-5.632s-.431-7.734-.474-9.875c-.019-1.024.034-4.013.095-6.855.067-3.107.142-6.037.142-6.037l-.787-6.227s.787-.08,1.024.237a2.272,2.272,0,0,0,.345.265h0c1.358.919,6.158,3.743,6.158,3.743s2.656,1.056,3.293,2.57a22.385,22.385,0,0,0,1.386,3.019,9.319,9.319,0,0,1,.476,2.458s.914,3.73,1.628,4.362,1.235,4.651,1.235,4.651l-6.307,4.959s-.554,8.25-.673,8.569S437.763,361.15,437.763,361.15Z" transform="translate(-344.661 -262.753)" fill="#fff"/>
    <path id="Caminho_77" data-name="Caminho 77" d="M437.947,360.9s.395.6,0,.873.037.951.037.951-.983.586-.552,1.108.16,2.879.16,2.879l-1.19,1.971s.071,1.27.078,2.986c0,2.678-.157,6.443-1.028,8.159l.119,14.082a19.2,19.2,0,0,1-7.659,1.059l-.515-22.6s.755-12.814,1.033-15.272a25.343,25.343,0,0,0,.2-3.849,43.265,43.265,0,0,0-.515-5.632s-.431-7.734-.477-9.875c-.019-1.024.037-4.013.095-6.855.067-3.107.142-6.037.142-6.037l-1.039-6.311s1.039,0,1.279.321a2.047,2.047,0,0,0,.345.265h0c1.358.919,6.16,3.743,6.16,3.743s2.654,1.057,3.29,2.57a22.036,22.036,0,0,0,1.389,3.019,9.21,9.21,0,0,1,.474,2.458s.914,3.73,1.628,4.362,1.229,4.642,1.229,4.642l-6.307,4.959s-.554,8.25-.675,8.569S437.947,360.9,437.947,360.9Z" transform="translate(-344.607 -262.503)" fill="#fff"/>
    <path id="Caminho_78" data-name="Caminho 78" d="M431.265,328.4l.569,1.66-3,3.019c.067-3.1.142-6.037.142-6.037l-1.039-6.311s1.039,0,1.279.321a1.967,1.967,0,0,0,.345.263h0l2.549,7.353Z" transform="translate(-345.477 -264.221)" opacity="0.1"/>
    <path id="Caminho_79" data-name="Caminho 79" d="M430.155,326.19l.571,1.66-3,3.019c.067-3.107.142-6.037.142-6.037l-1.041-6.311s1.041,0,1.279.321a2.159,2.159,0,0,0,.345.265h0l2.551,7.35Z" transform="translate(-344.606 -262.488)" fill="#fff"/>
    <path id="Caminho_80" data-name="Caminho 80" d="M388.583,251.058a7.3,7.3,0,0,1-.362,2.288.308.308,0,0,1-.233-.058,9.518,9.518,0,0,0-2.186-5.313,5.581,5.581,0,0,0-1.186-1.229,2.32,2.32,0,0,0-1.609-.455c-.647.088-1.218.528-1.872.584-.862.071-1.634-.526-2.49-.556a2.447,2.447,0,0,0-1.831.85,5.021,5.021,0,0,0-.981,1.82,10.646,10.646,0,0,0-.548,3.139c-.011.6-.069,1.361-.63,1.58a3.221,3.221,0,0,0-.813-2.46l-.013-.013v-.177a7.378,7.378,0,1,1,14.756,0Z" transform="translate(-303.034 -203.785)" opacity="0.1"/>
    <path id="Caminho_81" data-name="Caminho 81" d="M376.064,221.812a5.08,5.08,0,0,0-3.584-.28c-.6.177-1.16.464-1.766.608-1.294.313-2.8-.026-3.914.731a4.681,4.681,0,0,0-1.333,1.775l-.862,1.643a10.661,10.661,0,0,0-1.141,2.8,3.579,3.579,0,0,0,.55,2.894c.457.58,1.132.944,1.628,1.49a3.234,3.234,0,0,1,.811,2.458c.563-.216.617-.975.63-1.578a10.645,10.645,0,0,1,.548-3.139,5.005,5.005,0,0,1,.981-1.82,2.452,2.452,0,0,1,1.831-.85c.862.03,1.637.625,2.49.554.647-.054,1.22-.5,1.872-.582a2.312,2.312,0,0,1,1.609.455A5.526,5.526,0,0,1,377.6,230.2a9.493,9.493,0,0,1,2.189,5.313c.244.179.6-.054.716-.33a7.884,7.884,0,0,1,.278-.862,3.18,3.18,0,0,1,.781-.694,3.052,3.052,0,0,0,.815-2.443,12.168,12.168,0,0,1-.03-2.656c.1-.535.33-1.035.455-1.563a2.044,2.044,0,0,0-.155-1.576,2.655,2.655,0,0,0-2.13-.862c-.9-.078-1.7.022-2.277-.735a8.259,8.259,0,0,0-.906-1.108C377.217,222.571,376.064,221.86,376.064,221.812Z" transform="translate(-294.836 -186.253)" fill="#512e4e"/>
    <path id="Caminho_82" data-name="Caminho 82" d="M302.727,419.3l-2.253-4.166-.714,6.428a29.808,29.808,0,0,1,.317,3.292,31.657,31.657,0,0,0,1.626,4.362s5.634,10.035,7.935,10.552l7.773-5.554-2.061-2.618s-.714-.278-.893,0c0,0-3.827-6.585-4.224-7.062a2.379,2.379,0,0,1-.319-1.427s-.6-.634-.4-1.229-1.149-2.659-1.149-2.659l1.229-1.149Z" transform="translate(-244.935 -338.267)" opacity="0.1"/>
    <path id="Caminho_83" data-name="Caminho 83" d="M298.859,412.93l-.6.474-.714,6.428a29.793,29.793,0,0,1,.317,3.293,31.641,31.641,0,0,0,1.628,4.362s5.632,10.035,7.933,10.552l7.775-5.554-2.063-2.618s-.714-.278-.893,0c0,0-3.827-6.585-4.224-7.062a2.371,2.371,0,0,1-.317-1.427s-.6-.634-.4-1.229-1.151-2.659-1.151-2.659l1.229-1.149Z" transform="translate(-243.202 -336.541)" fill="#fff"/>
    <path id="Caminho_84" data-name="Caminho 84" d="M458.526,515.74c.431.524.16,2.876.16,2.876l-1.19,1.971s.071,1.272.075,2.986l-2,.625a1.188,1.188,0,0,1-1.542-1.171l.345-11.128,4.668,1.785c-.4.276.039.953.039.953S458.09,515.216,458.526,515.74Z" transform="translate(-365.94 -414.171)" opacity="0.1"/>
    <path id="Caminho_85" data-name="Caminho 85" d="M459.628,514.638c.431.524.16,2.878.16,2.878l-1.19,1.971s.071,1.27.078,2.986l-2.038.636a1.164,1.164,0,0,1-1.509-1.147l.347-11.163,4.67,1.785c-.4.276.037.951.037.951S459.2,514.116,459.628,514.638Z" transform="translate(-366.802 -413.308)" fill="#fff"/>
    <path id="Caminho_86" data-name="Caminho 86" d="M469.585,497.684s-.317,2.025-1.11,2.143-1.149,3.275-1.941,3.163-.267-2.935-.239-3.482-.862-2.816-.2-3.331,2.775,0,2.775,0Z" transform="translate(-375.213 -401.658)" fill="#cf6f80"/>
    <path id="Caminho_87" data-name="Caminho 87" d="M468.311,420.709l1.5-3.019a19.6,19.6,0,0,1,.6,3.53c0,1.229.832,1.35.832,1.35s.912,1.078.431,1.863a9.041,9.041,0,0,0-.675,2.738s.157,3.728-.556,4.243a2.888,2.888,0,0,0-.862,1.747,12.648,12.648,0,0,0-1.27,2.9,28.752,28.752,0,0,1-1.824,4.323s.912-4.681-4.4-6.7c0,0-.041-1.589.356-2.025s1.016-.634.627-2.835a25.713,25.713,0,0,1-.112-5.36,33.754,33.754,0,0,1,1.19-3.823Z" transform="translate(-372.252 -340.275)" opacity="0.1"/>
    <path id="Caminho_88" data-name="Caminho 88" d="M470.6,415.69l1.307.431a19.535,19.535,0,0,1,.6,3.53c0,1.229.832,1.35.832,1.35s.912,1.078.431,1.863a9.017,9.017,0,0,0-.673,2.738s.157,3.728-.556,4.243a2.927,2.927,0,0,0-.873,1.747,12.656,12.656,0,0,0-1.268,2.9c.041.556-1.826,4.323-1.826,4.323s.914-4.681-4.4-6.7c0,0-.039-1.589.358-2.025s1.016-.634.627-2.835a25.713,25.713,0,0,1-.112-5.36,33.753,33.753,0,0,1,1.19-3.823Z" transform="translate(-373.892 -338.706)" fill="#fff"/>
    <path id="Caminho_89" data-name="Caminho 89" d="M360.15,776s2.083-1.309,3.45-.358S360.15,776,360.15,776Z" transform="translate(-292.304 -620.772)" opacity="0.1"/>
    <path id="Caminho_90" data-name="Caminho 90" d="M435.21,759.748a4.216,4.216,0,0,1,3.392,1.43C440.15,762.844,435.21,759.748,435.21,759.748Z" transform="translate(-351.18 -608.569)" opacity="0.1"/>
    <g id="Grupo_4" data-name="Grupo 4" transform="translate(68.543 39.813)" opacity="0.1">
      <path id="Caminho_91" data-name="Caminho 91" d="M392.782,257.561a3.2,3.2,0,0,0-.783.7,7.91,7.91,0,0,0-.276.862c-.121.28-.472.509-.716.332a9.534,9.534,0,0,0-2.189-5.315,5.523,5.523,0,0,0-1.184-1.229,2.318,2.318,0,0,0-1.611-.455c-.647.088-1.216.528-1.869.582-.862.073-1.637-.524-2.493-.554a2.441,2.441,0,0,0-1.828.852,4.994,4.994,0,0,0-.981,1.818,10.661,10.661,0,0,0-.548,3.139c-.013.6-.069,1.352-.625,1.576a2.943,2.943,0,0,1,0,.479c.561-.216.617-.975.63-1.578a10.647,10.647,0,0,1,.548-3.139,5,5,0,0,1,.981-1.82,2.447,2.447,0,0,1,1.828-.85c.862.03,1.639.625,2.493.554.647-.054,1.22-.5,1.869-.582a2.318,2.318,0,0,1,1.611.455,5.524,5.524,0,0,1,1.184,1.229,9.509,9.509,0,0,1,2.189,5.313c.244.179.6-.054.716-.33a8.373,8.373,0,0,1,.276-.862,3.191,3.191,0,0,1,.783-.694,3.052,3.052,0,0,0,.815-2.443v-.082A2.831,2.831,0,0,1,392.782,257.561Z" transform="translate(-374.598 -250.471)"/>
      <path id="Caminho_92" data-name="Caminho 92" d="M365.652,263.634c-.5-.546-1.173-.91-1.628-1.488a3.157,3.157,0,0,1-.628-1.766,3.321,3.321,0,0,0,.628,2.24c.455.58,1.132.944,1.628,1.49a3.234,3.234,0,0,1,.813,1.923A3.235,3.235,0,0,0,365.652,263.634Z" transform="translate(-363.385 -256.697)"/>
      <path id="Caminho_93" data-name="Caminho 93" d="M451.544,243.727c-.127.528-.354,1.031-.457,1.563a4.983,4.983,0,0,0-.067,1.078,4.193,4.193,0,0,1,.067-.612c.1-.535.33-1.035.457-1.563a2.652,2.652,0,0,0,.071-.893A3,3,0,0,1,451.544,243.727Z" transform="translate(-432.12 -243.3)"/>
    </g>
    <ellipse id="Elipse_10" data-name="Elipse 10" cx="21.01" cy="3.374" rx="21.01" ry="3.374" transform="translate(7.986 157.244)" fill="#ee6c4d" opacity="0.1"/>
    <rect id="Retângulo_32" data-name="Retângulo 32" width="1.352" height="30.439" transform="translate(28.321 95.976)" fill="#535461"/>
    <path id="Caminho_94" data-name="Caminho 94" d="M155.787,637l-.084,1.371-.121,1.941-.05.806-.119,1.941-.052.806-.121,1.941-1.363,22.008a3.73,3.73,0,0,1-3.722,3.5h-7.085a3.728,3.728,0,0,1-3.719-3.5L138,645.786l-.121-1.941-.05-.806-.121-1.941-.05-.806-.121-1.941-.086-1.371a1.941,1.941,0,0,1,1.941-2.051h14.492A1.928,1.928,0,0,1,155.787,637Z" transform="translate(-117.619 -510.674)" fill="#3f3d56"/>
    <path id="Caminho_95" data-name="Caminho 95" d="M108.757,592.24l-.121,1.934H90.7l-.121-1.934Z" transform="translate(-70.673 -464.546)" fill="#9d9cb5"/>
    <path id="Caminho_96" data-name="Caminho 96" d="M109.206,604.95l-.119,1.936h-17.6l-.121-1.936Z" transform="translate(-71.292 -474.516)" fill="#9d9cb5"/>
    <path id="Caminho_97" data-name="Caminho 97" d="M109.655,617.68l-.119,1.934H92.281l-.121-1.934Z" transform="translate(-71.912 -484.501)" fill="#9d9cb5"/>
    <path id="Caminho_98" data-name="Caminho 98" d="M65.107,534.78a35.151,35.151,0,0,1,11.158,14.606A35.083,35.083,0,0,1,58.9,543.364a35.1,35.1,0,0,1-11.154-14.6A35.058,35.058,0,0,1,65.107,534.78Z" transform="translate(-47.264 -427.396)" fill="#ee6c4d"/>
    <path id="Caminho_99" data-name="Caminho 99" d="M47.72,528.76s9.85,5.466,13.008,9.992,15.514,10.634,15.514,10.634" transform="translate(-47.24 -427.396)" fill="none" stroke="#535461" stroke-miterlimit="10" stroke-width="2"/>
    <path id="Caminho_100" data-name="Caminho 100" d="M117.448,491.537a19.144,19.144,0,0,1,6.076,7.948A17.353,17.353,0,0,1,108,488.26,19.091,19.091,0,0,1,117.448,491.537Z" transform="translate(-94.522 -395.628)" fill="#ee6c4d"/>
    <path id="Caminho_101" data-name="Caminho 101" d="M108,488.26s5.36,2.976,7.079,5.438,8.446,5.787,8.446,5.787" transform="translate(-94.522 -395.628)" fill="none" stroke="#535461" stroke-miterlimit="10" stroke-width="2"/>
    <path id="Caminho_102" data-name="Caminho 102" d="M187.154,513.3a26.406,26.406,0,0,0-5.964,12.48,24,24,0,0,0,17.823-19.6A26.427,26.427,0,0,0,187.154,513.3Z" transform="translate(-151.931 -409.685)" fill="#ee6c4d"/>
    <path id="Caminho_103" data-name="Caminho 103" d="M199.017,506.19s-6.413,5.546-8.043,9.367-9.785,10.227-9.785,10.227" transform="translate(-151.931 -409.692)" fill="none" stroke="#535461" stroke-miterlimit="10" stroke-width="2"/>
    <path id="Caminho_104" data-name="Caminho 104" d="M870.864,321.188s-3.56-17.711-2.2-19.915c0,0,.049-2.048-.032-4.66v-.3a6.633,6.633,0,0,0,.748.431,6.055,6.055,0,0,0,4.075.526l-1.078-1.2a1.991,1.991,0,0,1-.584-.977,2.046,2.046,0,0,1,.233-1.057c1.024-2.587,1.078-5.841-.895-7.816-1.667-1.66-2.072-3.8-3.881-5.319a11.211,11.211,0,0,1-2.734-4.312,24.247,24.247,0,0,1-1.5-4.082c-.259-1.1-.362-2.242-.718-3.318a4.224,4.224,0,0,0-2.063-2.6,7.791,7.791,0,0,1-1.121-.494,4.844,4.844,0,0,1-1.033-1.214c-1.632-2.156-7.1-.886-9.686-.011a5.449,5.449,0,0,0-1.915,1.061l.024-.039c.02-.032.043-.065.065-.1a3.4,3.4,0,0,0-.724.809,19.379,19.379,0,0,0-.85,1.941c-.38.766-2.49,2.9-1.583,3.763a.765.765,0,0,0,.216.138,1.865,1.865,0,0,0,1.078.108l-.039.093a6.3,6.3,0,0,0-.468,2.391,6.472,6.472,0,0,0,6.529,6.415,6.591,6.591,0,0,0,2-.308c.015.082.028.164.043.246a.761.761,0,0,0,.015.1h0l-.114.16a.22.22,0,0,0-.019-.028l-3.385,4.731c-.518.364-3.5,2.521-3.666,4.138-.177,1.77-.354,3.842-.354,3.842l-.024.444a1.332,1.332,0,0,1-1.078.291c-1.057-.172-1.057,3.881-1.057,3.881s-.7.647-1.186.086-1.76,1.339-1.76,1.339l-8,.345h0l-.183.011-.431-1.335a.563.563,0,0,0-.705-.36.645.645,0,0,0-.1.041l-.03.017-.056.039-.028.026a.425.425,0,0,0-.043.045l-.026.03-.013.013h0a.543.543,0,0,0-.078.483l.371,1.145c-1.544.311-3.122,1.186-1.835,3.6l-6.525-1.205,2.111,1.772,10.9,2.249c-.145.259-.05.634.4,1.162,1.941,2.279,5.477,2.9,6.9,3.057a12.249,12.249,0,0,0,1.4,2.372l-.123,2.27s-3.6,17.306-4.263,18.183a10.238,10.238,0,0,0,.912-1.2c-1.046,3.556-2.508,8.422-2.891,9.151-.617,1.164-1.188,5.876-.485,6.178a5.915,5.915,0,0,0,1.712-.019v.39L839,363.614s.177,9.071-.308,9.936a8.454,8.454,0,0,0-.615,2.678,26.286,26.286,0,0,1-3.478,5.015.235.235,0,0,1-.035.03l-.047-.336a7.337,7.337,0,0,1-5.936,2.2s-2.46,1.6,1.188,1.686,8.308-.129,8.308-.129,3.254-4.959,5.979-4.312v3.758h.834v-3.819a3.422,3.422,0,0,0,1.485-2.249,2.734,2.734,0,0,0-.974-2.529,1.617,1.617,0,0,1-.533-1.182l-.03.026a2.27,2.27,0,0,0-.028-.233c-.239-1.941-.539-5.945.52-8.907,1.451-4.062,1.891-9.72.834-13.088a30.1,30.1,0,0,1-.839-3.28c-.026-.14-.05-.274-.071-.4a16.988,16.988,0,0,1,2.141.431c2.447.675,7.8.8,12.372.763.011.125.024.257.039.388a14.125,14.125,0,0,0,.509,2.7c.574,1.725.837,9.33.837,9.33s.74,6.253.336,8.8c-.216,1.414-.431,2.835-.554,4.263v.028s-1.212,3.45-2.1,5.324c-.021.047-.045.095-.067.14a2.8,2.8,0,0,0-.692.153s-1.188,2.372-2.372,2.764-.791,1.684,1.889,1.21,6.727-.862,6.727-.862l.175-2.419.824-1.031-.216,2.413.878-.172-.116-2.935,1.348-1.686s1.628-1.449-.791-4.3v.063c-.026-.041-.05-.084-.078-.125V373.7c-.4-.621-.72-1.779-.136-3.834,1.057-3.713,1.671-7.083,1.671-7.083s2.359-9.028-.476-13.3h.125a7.185,7.185,0,0,1-.61-1.9q-.022-.116-.039-.239a15.561,15.561,0,0,0,5.837-1.32C872.711,346.024,871.7,324.6,870.864,321.188Zm-26.635-14.942v.043l-.431.022Zm-1.479.2a.478.478,0,0,0-.194.093,1.916,1.916,0,0,0-.339.886l-.673-.151s-.472-.1-1.151-.216l-.321-.323C840.955,306.667,841.874,306.559,842.749,306.451Z" transform="translate(-654.939 -219.481)" fill="url(#linear-gradient-2)"/>
    <path id="Caminho_105" data-name="Caminho 105" d="M971.577,741.961l-.257,3.055.86-.172-.129-3.314Z" transform="translate(-761.508 -581.647)" fill="#1d2366"/>
    <path id="Caminho_106" data-name="Caminho 106" d="M886.044,668.341c-1.037,2.954-.744,6.941-.511,8.877.086.716.166,1.151.166,1.151s-1.55,3.532-1.68,3.666-4.563,2.84-4.563,2.84l-3.1,1.809s-3.144-1.378-1.637-1.852a2.288,2.288,0,0,0,.813-.554,26.031,26.031,0,0,0,3.4-5,8.6,8.6,0,0,1,.6-2.669c.474-.86.3-9.9.3-9.9l.037-14.738V650.05l5.9.043a13.35,13.35,0,0,0,.255,1.941,29.644,29.644,0,0,0,.821,3.269C887.894,658.664,887.463,664.294,886.044,668.341Z" transform="translate(-695.604 -522.533)" fill="#ffb0b1"/>
    <path id="Caminho_107" data-name="Caminho 107" d="M885.7,777.217s-1.55,3.532-1.68,3.666-4.563,2.84-4.563,2.84l-3.1,1.809s-3.144-1.378-1.637-1.852a2.289,2.289,0,0,0,.813-.554l.134.942,1.033-.043,8.84-7.954C885.62,776.781,885.7,777.217,885.7,777.217Z" transform="translate(-695.604 -621.381)" opacity="0.1"/>
    <path id="Caminho_108" data-name="Caminho 108" d="M865.667,777l-8.89,8.008-1.033.043-.216-1.509a7.138,7.138,0,0,1-5.822,2.2s-2.411,1.593,1.162,1.68,8.135-.129,8.135-.129,3.187-4.959,5.854-4.312v3.745h.819v-3.78a3.4,3.4,0,0,0,1.453-2.242,2.747,2.747,0,0,0-.951-2.518,1.624,1.624,0,0,1-.513-1.18Z" transform="translate(-675.679 -622.11)" fill="#1d2366"/>
    <path id="Caminho_109" data-name="Caminho 109" d="M994.422,672.362c-.574,2.048-.261,3.2.131,3.821v.013a7.061,7.061,0,0,1,1.031,2.516l.035.194-4.045,5.9-2.195.862s-3.53-1.205-2.885-1.55a3.3,3.3,0,0,0,.7-1.151c.863-1.865,2.053-5.306,2.053-5.306v-.028c.125-1.421.323-2.838.543-4.248.395-2.538-.33-8.767-.33-8.767s-.259-7.575-.819-9.3a14.191,14.191,0,0,1-.5-2.682c-.116-1.078-.142-1.966-.142-1.966s2.324-3.234,6.585.259a4.688,4.688,0,0,1,.89.966c2.943,4.187.574,13.412.574,13.412S995.455,668.66,994.422,672.362Z" transform="translate(-783.534 -521.949)" fill="#ffb0b1"/>
    <path id="Caminho_110" data-name="Caminho 110" d="M995.649,776.495l-4.045,5.9-2.195.862s-3.53-1.205-2.885-1.55a3.3,3.3,0,0,0,.7-1.151,2.79,2.79,0,0,1,2.268,1.41l1.893-.3s2.5-4.908,3.057-5.207.086-2.24.086-2.24v-.494c.015.017.028.037.045.054v.013a7.063,7.063,0,0,1,1.031,2.516Z" transform="translate(-783.558 -619.538)" opacity="0.1"/>
    <path id="Caminho_111" data-name="Caminho 111" d="M979.039,782.545A2.635,2.635,0,0,0,975.9,781.3s-1.162,2.372-2.324,2.756-.774,1.677,1.852,1.205,6.585-.862,6.585-.862l.172-2.413,2.669-3.4s1.591-1.443-.776-4.282v.494s.474,1.941-.086,2.24-3.049,5.209-3.049,5.209Z" transform="translate(-772.972 -619.993)" fill="#1d2366"/>
    <path id="Caminho_112" data-name="Caminho 112" d="M906.044,650.073a13.348,13.348,0,0,0,.255,1.941,27.044,27.044,0,0,0-6.158-.062V650.03Z" transform="translate(-715.862 -522.518)" opacity="0.1"/>
    <path id="Caminho_113" data-name="Caminho 113" d="M1001.506,652.423s-3.45.168-7.564.2c-.116-1.078-.142-1.966-.142-1.966s2.324-3.234,6.585.259a4.684,4.684,0,0,1,.891.966A5.241,5.241,0,0,0,1001.506,652.423Z" transform="translate(-789.327 -521.941)" opacity="0.1"/>
    <path id="Caminho_114" data-name="Caminho 114" d="M920.8,514.638s-15.11.731-19.716-.561-9.17-.173-9.858-.472-.129-4.994.474-6.156,3.916-12.916,3.916-12.916l3.187-16.616,3.357-.925.237-.067,5.85-1.613,4.286-1.184s8.523,33.277,7.792,35.73a6.284,6.284,0,0,0-.125,2.887A7.207,7.207,0,0,0,920.8,514.638Z" transform="translate(-708.622 -384.545)" fill="#1d2366"/>
    <path id="Caminho_115" data-name="Caminho 115" d="M870.222,439s-3.019,3.234-.733,5.037,3.788.172,3.788.172Z" transform="translate(-691.148 -356.99)" fill="#c7daf5"/>
    <path id="Caminho_116" data-name="Caminho 116" d="M870.222,439s-3.019,3.234-.733,5.037,3.788.172,3.788.172Z" transform="translate(-691.148 -356.99)" opacity="0.1"/>
    <path id="Caminho_117" data-name="Caminho 117" d="M965.618,318.934s-.354.336-.886.832c-.759.709-1.882,1.747-2.879,2.615-1.38,1.2-2.519,2.083-2.111,1.33a5.814,5.814,0,0,0,.127-3.29c-.015-.082-.028-.164-.043-.244a22.585,22.585,0,0,0-.666-2.665,46.123,46.123,0,0,1,3.463-4.017c.459-.431.781-.608.8-.308a10.02,10.02,0,0,0,.7,2.238c.011.03.021.058.034.088.25.647.533,1.311.781,1.885C965.316,318.278,965.618,318.934,965.618,318.934Z" transform="translate(-762.156 -258.188)" fill="#ffb0b1"/>
    <path id="Caminho_118" data-name="Caminho 118" d="M964.156,315.523a6.4,6.4,0,0,1-4.286,4.907,22.439,22.439,0,0,0-.709-2.909s4.2-5.423,4.263-4.325A10.27,10.27,0,0,0,964.156,315.523Z" transform="translate(-762.156 -258.197)" opacity="0.1"/>
    <path id="Caminho_119" data-name="Caminho 119" d="M931.143,351.215l.543-.765s.36,2.2,1.684,1.227,1.389,7.286,1.389,7.286l-1.421,21.245-10.268-.615.291-10.266,1.162-5.175,2.874-7.523,1.71-2.486Z" transform="translate(-733.848 -287.533)" opacity="0.1"/>
    <path id="Caminho_120" data-name="Caminho 120" d="M934.782,359.533l-1.294,19.21-.136,2.035-5.725-.343-.216-.013-4.312-.259.291-10.268,1.162-5.175,2.874-7.523,1.71-2.486,2.036-2.939.543-.763s.36,2.2,1.684,1.227l.028-.019h0C934.722,351.4,934.782,359.533,934.782,359.533Z" transform="translate(-733.871 -287.972)" fill="#1d2366"/>
    <path id="Caminho_121" data-name="Caminho 121" d="M882.106,406.26a1.571,1.571,0,0,1-1.55.9c-1.035-.175-1.033,3.881-1.033,3.881s-.688.647-1.162.086-1.725,1.335-1.725,1.335l-7.836.345s3.487,1.593,2.8,6.415c0,0,11.838-.733,12.226-1.852S882.106,406.26,882.106,406.26Z" transform="translate(-691.279 -331.309)" fill="#fff"/>
    <path id="Caminho_122" data-name="Caminho 122" d="M882.106,406.26a1.571,1.571,0,0,1-1.55.9c-1.035-.175-1.033,3.881-1.033,3.881s-.688.647-1.162.086-1.725,1.335-1.725,1.335l-7.836.345s3.487,1.593,2.8,6.415c0,0,11.838-.733,12.226-1.852S882.106,406.26,882.106,406.26Z" transform="translate(-691.279 -331.309)" opacity="0.03"/>
    <path id="Caminho_123" data-name="Caminho 123" d="M777.66,389.76l2.066,1.764,17,3.573-2.109-2.152Z" transform="translate(-609.605 -305.725)" fill="#fff"/>
    <path id="Caminho_124" data-name="Caminho 124" d="M915.88,349.816a43.5,43.5,0,0,0-1.766,4.567c-.563,1.606-1.033,3.019-1.033,3.019s-1.1,7.146-1.658,8.437-.257,6.328-.257,6.328l-2.089,12.439a62.039,62.039,0,0,1-2.408,10.246,18.663,18.663,0,0,1-3.1,5.6c.647-.875,4.172-18.112,4.172-18.112l1.164-21.739s.17-2.066.343-3.832,3.665-4.176,3.665-4.176l3.368-4.789C916.621,348.253,916.4,349.042,915.88,349.816Z" transform="translate(-718.552 -285.454)" fill="#fff"/>
    <path id="Caminho_125" data-name="Caminho 125" d="M891.507,469.373s-4.959-.216-7.361-3.1,5.552-1.151,5.552-1.151l2.068.474Z" transform="translate(-702.961 -377.074)" fill="#ffb0b1"/>
    <path id="Caminho_126" data-name="Caminho 126" d="M961.256,417.544a6.283,6.283,0,0,0-.125,2.887,41.1,41.1,0,0,1-11.2-1.078,25.145,25.145,0,0,1-3.918,2.454l-1.548-19.19c-.99-2.587-1.378-16.143-1.378-16.143s.088-.709.216-1.772a.2.2,0,0,1,.011-.08c.386-2.969,1.151-8.543,1.527-9.3.517-1.035-1.591-3.788-1.591-3.788l.96-8.183.116-.988c2.023-.9,3.573-3.788,3.573-3.788l1.19-2.085h0c1.294-.83,1.36,7.305,1.36,7.305l-1.294,19.21,4.286-1.184S961.987,415.09,961.256,417.544Z" transform="translate(-749.551 -292.227)" opacity="0.1"/>
    <path id="Caminho_127" data-name="Caminho 127" d="M967.749,400.175c-5.9,2.928-16.616.216-16.616.216a25.156,25.156,0,0,1-3.918,2.454l-1.55-19.19c-.988-2.587-1.376-16.143-1.376-16.143s1.246-10.115,1.764-11.148a1.661,1.661,0,0,0-.1-1.233,15.6,15.6,0,0,1-.944-7.221l.414-3.517.114-.985c2.025-.906,3.575-3.791,3.575-3.791l1.078-1.889,1.984-3.48.94-1.647.16.144,1.218,1.1,1.294,1.078c1.688,1.423,4.606,3.929,6.111,5.462,1.324,1.35,1.742,6.6,1.863,10.552.08,2.6.032,4.642.032,4.642-1.335,2.2,2.156,19.837,2.156,19.837C966.76,378.829,967.749,400.175,967.749,400.175Z" transform="translate(-750.492 -273.532)" fill="#fff"/>
    <path id="Caminho_128" data-name="Caminho 128" d="M934.579,363.834s-4.047,7.7-3.577,10.632,1.807,6.242,1.162,7.016a2.383,2.383,0,0,1-1.9.947,6.232,6.232,0,0,0-2.372,1.378,22.474,22.474,0,0,0-3.019.733,18.791,18.791,0,0,1-3.53.947s-4.1-.129-4.479.259-.774,2.71.043,4.563,1.725,3.234,2.411,3.487,5.037-1.205,8.567-1.55,7.361-3.142,7.361-3.142,4.22-1.509,4.959-4.047-.9-16.486-.9-16.486S938.065,362.068,934.579,363.834Z" transform="translate(-728.641 -297.792)" opacity="0.03"/>
    <path id="Caminho_129" data-name="Caminho 129" d="M932.2,360.836s-4.047,7.706-3.573,10.632,1.807,6.242,1.16,7.018a2.372,2.372,0,0,1-1.893.947,6.231,6.231,0,0,0-2.372,1.378,22.67,22.67,0,0,0-3.019.731,18.977,18.977,0,0,1-3.53.947s-4.1-.129-4.476.259-.776,2.713.043,4.563,1.725,3.234,2.411,3.487,5.037-1.205,8.566-1.548,7.361-3.144,7.361-3.144,4.218-1.509,4.948-4.045-.9-16.488-.9-16.488S935.688,359.072,932.2,360.836Z" transform="translate(-726.782 -295.441)" opacity="0.03"/>
    <path id="Caminho_130" data-name="Caminho 130" d="M934,362.045s-4.047,7.706-3.573,10.632,1.807,6.242,1.162,7.016a2.372,2.372,0,0,1-1.9.949,6.259,6.259,0,0,0-2.372,1.376,22.181,22.181,0,0,0-3.019.733,18.843,18.843,0,0,1-3.53.947s-4.1-.129-4.478.259-.774,2.713.043,4.563,1.725,3.234,2.411,3.487,5.037-1.205,8.567-1.55,7.361-3.142,7.361-3.142,4.22-1.509,4.959-4.047-.893-16.486-.893-16.486S937.489,360.289,934,362.045Z" transform="translate(-728.194 -296.391)" fill="#fff"/>
    <path id="Caminho_131" data-name="Caminho 131" d="M991.053,458.3s-3.234-.647-2.109.431,1.119,2.022,2.5,1.979S991.053,458.3,991.053,458.3Z" transform="translate(-785.332 -371.977)" opacity="0.1"/>
    <path id="Caminho_132" data-name="Caminho 132" d="M1023.551,566.58s-1.462.99,1.335,3.271S1023.551,566.58,1023.551,566.58Z" transform="translate(-812.363 -457.061)" opacity="0.1"/>
    <path id="Caminho_133" data-name="Caminho 133" d="M1011.771,604.31c0,.129-.517,4.744,1.419,5.9S1011.771,604.31,1011.771,604.31Z" transform="translate(-803.374 -486.656)" opacity="0.1"/>
    <path id="Caminho_134" data-name="Caminho 134" d="M856.051,436.59c-1.561.054-4.933.53-3.185,3.793,1.546,2.887,4.144.957,5.606-.507a5.509,5.509,0,0,0-2.422-3.286Z" transform="translate(-678.397 -355.099)" fill="#ffb0b1"/>
    <path id="Caminho_135" data-name="Caminho 135" d="M881.39,451Z" transform="translate(-701.154 -366.402)" fill="#ffb0b1"/>
    <path id="Caminho_136" data-name="Caminho 136" d="M880.74,451.467l.065-.067Z" transform="translate(-700.645 -366.716)" fill="#ffb0b1"/>
    <path id="Caminho_137" data-name="Caminho 137" d="M959.9,335.521c-1.656,1.132-3.045,2.087-3.316,2.286-.742.55-2.156,3.778-3.068,5.425-.727,1.326-3.088,1.667-3.978,1.751l.114-.985c2.025-.906,3.575-3.791,3.575-3.791l4-7.016,1.378,1.253Z" transform="translate(-754.61 -273.994)" opacity="0.1"/>
    <path id="Caminho_138" data-name="Caminho 138" d="M959.9,334.921c-1.656,1.132-3.045,2.087-3.316,2.288-.742.548-2.156,3.776-3.068,5.423-.727,1.326-3.088,1.667-3.978,1.751l.114-.985c2.025-.906,3.575-3.791,3.575-3.791l4-7.016,1.378,1.248S959.126,334.265,959.9,334.921Z" transform="translate(-754.61 -273.524)" fill="#dce7ff"/>
    <path id="Caminho_139" data-name="Caminho 139" d="M936.287,294.657a6.4,6.4,0,1,1-5.437-6.322,6.384,6.384,0,0,1,5.437,6.322Z" transform="translate(-734.181 -238.754)" fill="#ffb0b1"/>
    <path id="Caminho_140" data-name="Caminho 140" d="M949.137,316.165a5.684,5.684,0,0,1-2.063-2.217,5.837,5.837,0,0,0-1.214-2.038,5.39,5.39,0,0,0-1.984-.765,5.815,5.815,0,0,1-4.241-5.1,30.191,30.191,0,0,0,.155-3.325,3.68,3.68,0,0,0-.72-1.714,5.883,5.883,0,0,0-.623-.671c-.3-.285-.619-.561-.895-.863a3.351,3.351,0,0,1-.453-.615,2.968,2.968,0,0,1-.248-.571c-.431-1.32-.039-2.885-.513-4.22l-.026-.073a1.372,1.372,0,0,0-1.05-.985c-.507-.037-.94.384-1.423.571-1.011.392-2.1-.276-2.945-.957s-1.794-1.46-2.865-1.309a9.254,9.254,0,0,0-1.923.834,2.693,2.693,0,0,1-.455.132,6.394,6.394,0,0,1,12.187,3.717c.011.03.021.058.034.088.25.647.533,1.311.781,1.885l1.218,1.1,1.294,1.078c1.688,1.423,4.606,3.929,6.111,5.462C948.6,306.964,949.012,312.213,949.137,316.165Z" transform="translate(-735.871 -238.754)" opacity="0.1"/>
    <path id="Caminho_141" data-name="Caminho 141" d="M920.972,270.354c.308-.628.461-1.33.83-1.926a4.588,4.588,0,0,1,2.456-1.749c2.533-.873,7.887-2.141,9.487,0a4.668,4.668,0,0,0,1.011,1.207,7.518,7.518,0,0,0,1.1.494,4.194,4.194,0,0,1,2.018,2.587c.347,1.065.451,2.208.705,3.305a24.308,24.308,0,0,0,1.466,4.069,11.207,11.207,0,0,0,2.676,4.3c1.766,1.509,2.156,3.646,3.795,5.3,1.941,1.966,1.878,5.212.878,7.788a2.139,2.139,0,0,0-.229,1.052,2.063,2.063,0,0,0,.572.975l1.061,1.2a5.965,5.965,0,0,1-6.518-3.006,5.83,5.83,0,0,0-1.216-2.038,5.376,5.376,0,0,0-1.982-.763,5.823,5.823,0,0,1-4.241-5.108,30.144,30.144,0,0,0,.155-3.321,3.666,3.666,0,0,0-.722-1.725c-.593-.774-1.488-1.294-1.971-2.156-.817-1.442-.2-3.316-.785-4.864a1.376,1.376,0,0,0-1.05-.985c-.507-.037-.94.384-1.425.571-1.009.392-2.1-.274-2.943-.957s-1.794-1.46-2.868-1.307a9.014,9.014,0,0,0-1.921.834c-.483.185-1.462.351-1.885-.056C918.531,273.25,920.6,271.121,920.972,270.354Z" transform="translate(-730.814 -220.902)" fill="#591d4b"/>
    <path id="Caminho_142" data-name="Caminho 142" d="M942.708,302.864a5.832,5.832,0,0,0-1.216-2.035,5.377,5.377,0,0,0-1.984-.766,5.824,5.824,0,0,1-4.241-5.106,30.706,30.706,0,0,0,.157-3.323,3.686,3.686,0,0,0-.722-1.714c-.6-.774-1.49-1.294-1.971-2.156-.817-1.44-.2-3.314-.787-4.864a1.38,1.38,0,0,0-1.048-.985c-.5-.039-.942.386-1.425.574-1.009.392-2.1-.276-2.943-.957s-1.8-1.46-2.868-1.309a9.189,9.189,0,0,0-1.921.834c-.483.185-1.464.354-1.887-.054-.888-.862,1.18-2.986,1.55-3.75a20.617,20.617,0,0,1,.832-1.926c.019-.032.041-.065.063-.1a3.42,3.42,0,0,0-.709.806c-.369.6-.522,1.294-.83,1.925-.373.763-2.441,2.894-1.55,3.75.431.41,1.4.241,1.884.056a8.879,8.879,0,0,1,1.921-.834c1.078-.153,2.027.625,2.868,1.307s1.941,1.35,2.945.957c.483-.188.906-.61,1.423-.571a1.373,1.373,0,0,1,1.05.985c.589,1.548-.032,3.422.785,4.864.483.847,1.378,1.378,1.971,2.156a3.665,3.665,0,0,1,.722,1.725,30.142,30.142,0,0,1-.155,3.321,5.813,5.813,0,0,0,4.241,5.108,5.406,5.406,0,0,1,1.981.763,5.706,5.706,0,0,1,1.216,2.038,5.965,5.965,0,0,0,6.518,3.006l-.5-.565A6.03,6.03,0,0,1,942.708,302.864Z" transform="translate(-730.645 -228.532)" opacity="0.1"/>
    <path id="Caminho_143" data-name="Caminho 143" d="M949.251,350.338a43.468,43.468,0,0,0-1.766,4.567c-.632-.246-1.205-1.813-1.205-1.813l3.368-4.791C949.993,348.774,949.767,349.561,949.251,350.338Z" transform="translate(-752.053 -285.846)" opacity="0.1"/>
    <path id="Caminho_144" data-name="Caminho 144" d="M949.851,349.745a43.511,43.511,0,0,0-1.766,4.567c-.632-.244-1.205-1.813-1.205-1.813l3.368-4.789C950.593,348.182,950.367,348.971,949.851,349.745Z" transform="translate(-752.524 -285.384)" fill="#dce7ff"/>
    <path id="Caminho_145" data-name="Caminho 145" d="M862.952,435.279l-1.867-5.889a.55.55,0,0,1,.358-.692h0a.552.552,0,0,1,.69.358L864,434.938l-.185,1.231Z" transform="translate(-685.207 -348.889)" fill="#be8b87"/>
    <path id="Caminho_146" data-name="Caminho 146" d="M861.584,428.9h0a.552.552,0,0,1,.692.358l1.867,5.882-.14.923.136.142.186-1.231-1.878-5.882a.552.552,0,0,0-.69-.358h0a.552.552,0,0,0-.287.216A.746.746,0,0,1,861.584,428.9Z" transform="translate(-685.53 -348.921)" fill="#fff" opacity="0.1"/>
    <path id="Caminho_147" data-name="Caminho 147" d="M822.6,399.472l1.048-.332-.153,1.009-.032.222-.306-.319Z" transform="translate(-644.855 -313.083)" fill="#efc8c4"/>
    <path id="Caminho_148" data-name="Caminho 148" d="M872.42,461.743a.217.217,0,0,1,.067-.056.1.1,0,0,1,.1,0,.265.265,0,0,1,.037.058.186.186,0,0,0,.134.088l-.032.216Z" transform="translate(-694.119 -374.773)" fill="#727a9c"/>
    <path id="Caminho_149" data-name="Caminho 149" d="M861.13,441.7s3.745-.022,2.863,1.572a3.369,3.369,0,0,1-2.26,1.785Z" transform="translate(-685.263 -359.108)" fill="#ffb0b1"/>
  </g>
</svg>
