<svg xmlns="http://www.w3.org/2000/svg" width="166.922" height="97.129" viewBox="0 0 166.922 97.129">
  <g id="logo" transform="translate(-8.3 -15.637)">
    <g id="Grupo_2" data-name="Grupo 2" transform="translate(50.114 15.637)">
      <g id="Grupo_1" data-name="Grupo 1">
        <path id="Caminho_1" data-name="Caminho 1" d="M169.7,46.823a23.285,23.285,0,0,0-4.927-24.436,21.854,21.854,0,0,0-15.826-6.719A22.116,22.116,0,0,0,135.806,20L137.2,26.17a16.241,16.241,0,0,1,22.545-.9l.9.9a17.66,17.66,0,0,1,2.936,20.554ZM99.376,45.529a17.776,17.776,0,0,1,3.484-19.36,16.241,16.241,0,0,1,22.545-.9l.9.9,1.841,1.891.946-6.918a21.909,21.909,0,0,0-29.214.149c-.4.348-.747.7-1.145,1.095A23.425,23.425,0,0,0,93.4,45.529Zm-4.131,4.23a23.261,23.261,0,0,0,3.534,4.778l30.956,31.951a2.871,2.871,0,0,0,3.981.1l.1-.1,31.006-31.9a19.113,19.113,0,0,0,2.09-2.488l-7.167-.3-27.97,28.816L102.86,50.8a13.4,13.4,0,0,1-1.344-1.593Z" transform="translate(-92.317 -15.637)" fill="#fff"/>
      </g>
    </g>
    <path id="Caminho_2" data-name="Caminho 2" d="M83.3,53.1l1.194-3.932h21.3a2.1,2.1,0,0,0,2.041-.846c.747-1.095,7.316-7.615,10.1,0s4.081,20.007,4.529,20.952,3.036-35.684,4.28-42.5c1.294-6.918,5.176-7.515,5.972-.448,1,8.809,3.882,29.363,4.429,30.757s1.991,4.877,3.135-.946c1.194-5.823,1.841-13.139,6.669-11.944s5.375,5.275,7.615,5.723,16.125,0,16.125,0v3.633S156.658,54.793,152.826,53c-2.14-1-6.968-7.316-7.764-3.334-1.145,6.171-2.339,12.94-5.126,13.786s-5.524-.6-6.719-7.565c-1.095-6.47-2.887-22.147-3.135-23.789-.2-1.593-.946-4.927-1.394.3-.448,5.275-3.882,41.357-4.28,42.9-.547,1.941-2.488,5.574-4.429-1.294s-3.733-25.133-6.37-25.78c-2.588-.647-5.574,3.932-6.022,4.131C107.288,52.752,83.3,53.1,83.3,53.1Z" transform="translate(-37.674 -2.843)" fill="#fff"/>
    <g id="Grupo_3" data-name="Grupo 3" transform="translate(8.3 97.786)">
      <path id="Caminho_3" data-name="Caminho 3" d="M15.865,196.207h-4.23l-.8,2.389H8.3L12.63,187h2.24l4.33,11.646H16.661Zm-3.583-1.941h2.887l-1.443-4.33Z" transform="translate(-8.3 -183.865)" fill="#fff"/>
      <path id="Caminho_4" data-name="Caminho 4" d="M40.806,194.563a4.038,4.038,0,0,1-1.394,2.936,5.023,5.023,0,0,1-3.285,1.095,4.41,4.41,0,0,1-3.534-1.493,6.218,6.218,0,0,1-1.294-4.131v-.7a6.877,6.877,0,0,1,.6-2.936,4.313,4.313,0,0,1,1.692-1.941,4.854,4.854,0,0,1,2.538-.7,4.555,4.555,0,0,1,3.235,1.095,4.623,4.623,0,0,1,1.443,3.036H38.417a2.276,2.276,0,0,0-.647-1.642,2.241,2.241,0,0,0-1.642-.5,2.088,2.088,0,0,0-1.792.846,4.59,4.59,0,0,0-.6,2.638v.9a5.377,5.377,0,0,0,.547,2.737,1.974,1.974,0,0,0,1.792.846,2.241,2.241,0,0,0,1.642-.5,2.362,2.362,0,0,0,.647-1.593h2.439Z" transform="translate(-19.853 -183.714)" fill="#fff"/>
      <path id="Caminho_5" data-name="Caminho 5" d="M60.517,193.569H55.939V196.7h5.375v1.941H53.5V187h7.764v1.941H55.939v2.787h4.579Z" transform="translate(-31.005 -183.865)" fill="#fff"/>
      <path id="Caminho_6" data-name="Caminho 6" d="M77.52,195.409a1.191,1.191,0,0,0-.5-1.045,5.375,5.375,0,0,0-1.742-.747,11.717,11.717,0,0,1-1.991-.8,3.2,3.2,0,0,1-1.991-2.887,2.864,2.864,0,0,1,.547-1.692,3.088,3.088,0,0,1,1.543-1.145,6.141,6.141,0,0,1,4.479.05,3.462,3.462,0,0,1,1.493,1.294,3.5,3.5,0,0,1,.547,1.891H77.52a1.513,1.513,0,0,0-.5-1.244,2.039,2.039,0,0,0-1.394-.448,2.064,2.064,0,0,0-1.344.348,1.162,1.162,0,0,0-.5,1,1.127,1.127,0,0,0,.547.946,6.186,6.186,0,0,0,1.692.7,6.978,6.978,0,0,1,2.986,1.543,3.148,3.148,0,0,1-.2,4.678,5.16,5.16,0,0,1-3.086.846,5.63,5.63,0,0,1-2.439-.5,4.237,4.237,0,0,1-1.692-1.344,3.363,3.363,0,0,1-.6-1.991h2.389c0,1.294.747,1.941,2.289,1.941a2.253,2.253,0,0,0,1.344-.348A1.315,1.315,0,0,0,77.52,195.409Z" transform="translate(-39.795 -183.714)" fill="#fff"/>
      <path id="Caminho_7" data-name="Caminho 7" d="M97.72,195.409a1.191,1.191,0,0,0-.5-1.045,5.375,5.375,0,0,0-1.742-.747,11.717,11.717,0,0,1-1.991-.8,3.2,3.2,0,0,1-1.991-2.887,2.864,2.864,0,0,1,.547-1.692,3.088,3.088,0,0,1,1.543-1.145,6.141,6.141,0,0,1,4.479.05,3.462,3.462,0,0,1,1.493,1.294,3.5,3.5,0,0,1,.547,1.891H97.72a1.513,1.513,0,0,0-.5-1.244,2.039,2.039,0,0,0-1.394-.448,2.064,2.064,0,0,0-1.344.348,1.162,1.162,0,0,0-.5,1,1.127,1.127,0,0,0,.547.946,6.186,6.186,0,0,0,1.692.7,6.978,6.978,0,0,1,2.986,1.543,3.112,3.112,0,0,1,.946,2.289,2.925,2.925,0,0,1-1.145,2.389,5.16,5.16,0,0,1-3.086.846,5.63,5.63,0,0,1-2.439-.5,4.237,4.237,0,0,1-1.692-1.344,3.363,3.363,0,0,1-.6-1.991h2.389c0,1.294.747,1.941,2.289,1.941a2.253,2.253,0,0,0,1.344-.348A1.315,1.315,0,0,0,97.72,195.409Z" transform="translate(-49.942 -183.714)" fill="#fff"/>
      <path id="Caminho_8" data-name="Caminho 8" d="M118.015,196.157h-4.181l-.8,2.389H110.5l4.33-11.646h2.24l4.33,11.646h-2.538Zm-3.534-1.941h2.887l-1.443-4.33Z" transform="translate(-59.637 -183.814)" fill="#fff"/>
      <path id="Caminho_9" data-name="Caminho 9" d="M145.089,194.515V198.6H142.7V187h4.529a4.713,4.713,0,0,1,2.289.5,3.706,3.706,0,0,1,1.543,1.344,3.853,3.853,0,0,1,.547,1.991,3.272,3.272,0,0,1-1.194,2.687,4.926,4.926,0,0,1-3.235,1h-2.09Zm0-1.941h2.14a2.089,2.089,0,0,0,1.443-.448,1.619,1.619,0,0,0,.5-1.294,1.919,1.919,0,0,0-.5-1.394,1.873,1.873,0,0,0-1.394-.547h-2.19Z" transform="translate(-75.812 -183.865)" fill="#fff"/>
      <path id="Caminho_10" data-name="Caminho 10" d="M168.18,194.366h-1.891v4.28H163.9V187h4.33a4.956,4.956,0,0,1,3.185.9,3.146,3.146,0,0,1,1.095,2.588,3.587,3.587,0,0,1-.5,1.991,3.247,3.247,0,0,1-1.543,1.244l2.538,4.728v.1H170.42Zm-1.891-1.941h1.941a2.039,2.039,0,0,0,1.394-.448,1.579,1.579,0,0,0,.5-1.244,1.778,1.778,0,0,0-.448-1.294,2.006,2.006,0,0,0-1.443-.448h-1.941Z" transform="translate(-86.461 -183.865)" fill="#fff"/>
      <path id="Caminho_11" data-name="Caminho 11" d="M194,192.821a6.95,6.95,0,0,1-.6,2.986,4.545,4.545,0,0,1-1.742,1.991,4.9,4.9,0,0,1-2.588.7,5.033,5.033,0,0,1-2.588-.7,4.545,4.545,0,0,1-1.742-1.991,6.946,6.946,0,0,1-.647-2.986v-.6a7.345,7.345,0,0,1,.6-3.036,4.545,4.545,0,0,1,1.742-1.991,4.9,4.9,0,0,1,2.588-.7,5.033,5.033,0,0,1,2.588.7,4.545,4.545,0,0,1,1.742,1.991,7.183,7.183,0,0,1,.6,3.036v.6Zm-2.389-.547a4.917,4.917,0,0,0-.647-2.787,2.11,2.11,0,0,0-1.891-.946,2.027,2.027,0,0,0-1.841.946,4.74,4.74,0,0,0-.647,2.737v.547a4.74,4.74,0,0,0,.647,2.737,2.15,2.15,0,0,0,1.891,1,2.027,2.027,0,0,0,1.841-.946,4.74,4.74,0,0,0,.647-2.737Z" transform="translate(-96.608 -183.613)" fill="#fff"/>
      <path id="Caminho_12" data-name="Caminho 12" d="M216.956,198.6h-2.389l-4.678-7.664V198.6H207.5V187h2.389l4.678,7.664V187h2.389Z" transform="translate(-108.362 -183.865)" fill="#fff"/>
      <path id="Caminho_13" data-name="Caminho 13" d="M238.306,188.941h-3.583v9.7h-2.389v-9.7H228.8V187h9.456v1.941Z" transform="translate(-119.061 -183.865)" fill="#fff"/>
      <path id="Caminho_14" data-name="Caminho 14" d="M259.258,187v7.664a3.936,3.936,0,0,1-1.194,3.036,4.6,4.6,0,0,1-3.285,1.095,4.555,4.555,0,0,1-3.235-1.095,3.956,3.956,0,0,1-1.244-2.986V187h2.389v7.664a2.247,2.247,0,0,0,.547,1.642,2.031,2.031,0,0,0,1.493.547c1.344,0,2.04-.7,2.04-2.14V187Z" transform="translate(-129.861 -183.865)" fill="#fff"/>
      <path id="Caminho_15" data-name="Caminho 15" d="M277.515,193.043h-4.181l-.8,2.389H270l4.33-11.646h2.24l4.33,11.646h-2.538Zm-3.583-1.941h2.887l-1.443-4.33Zm1.941-10.4h2.538l-2.19,2.488H274.33Z" transform="translate(-139.757 -180.7)" fill="#fff"/>
      <path id="Caminho_16" data-name="Caminho 16" d="M298.28,194.366h-1.891v4.28H294V187h4.33a4.956,4.956,0,0,1,3.185.9,3.146,3.146,0,0,1,1.095,2.588,3.587,3.587,0,0,1-.5,1.991,3.247,3.247,0,0,1-1.543,1.244l2.538,4.728v.1H300.47Zm-1.891-1.941h1.941a2.039,2.039,0,0,0,1.393-.448,1.579,1.579,0,0,0,.5-1.244,1.778,1.778,0,0,0-.448-1.294,2.006,2.006,0,0,0-1.443-.448h-1.941Z" transform="translate(-151.812 -183.865)" fill="#fff"/>
      <path id="Caminho_17" data-name="Caminho 17" d="M317.689,198.6H315.3V187h2.389Z" transform="translate(-162.512 -183.865)" fill="#fff"/>
      <path id="Caminho_18" data-name="Caminho 18" d="M333.7,192.821a6.949,6.949,0,0,1-.6,2.986,4.544,4.544,0,0,1-1.742,1.991,4.9,4.9,0,0,1-2.588.7,5.033,5.033,0,0,1-2.588-.7,4.544,4.544,0,0,1-1.742-1.991,6.947,6.947,0,0,1-.647-2.986v-.6a7.345,7.345,0,0,1,.6-3.036,4.545,4.545,0,0,1,1.742-1.991,5.155,5.155,0,0,1,5.176,0,4.545,4.545,0,0,1,1.742,1.991,7.183,7.183,0,0,1,.6,3.036v.6Zm-2.439-.547a4.917,4.917,0,0,0-.647-2.787,2.11,2.11,0,0,0-1.891-.946,2.027,2.027,0,0,0-1.841.946,4.74,4.74,0,0,0-.647,2.737v.547a4.74,4.74,0,0,0,.647,2.737,2.15,2.15,0,0,0,1.891,1,2.027,2.027,0,0,0,1.841-.946,4.74,4.74,0,0,0,.647-2.737Z" transform="translate(-166.781 -183.613)" fill="#fff"/>
    </g>
  </g>
</svg>
